Coordinates
version=1
nRows=10
nColumns=63
inDegrees=yes

Units are S.I. units (second, meters, Newtons, ...)
If the header above contains a line with 'inDegrees', this indicates whether rotational values are in degrees (yes) or radians (no).

endheader
time	pelvis_tilt	pelvis_list	pelvis_rotation	pelvis_tx	pelvis_ty	pelvis_tz	hip_flexion_r	hip_adduction_r	hip_rotation_r	knee_angle_r	knee_angle_r_beta	ankle_angle_r	subtalar_angle_r	mtp_angle_r	hip_flexion_l	hip_adduction_l	hip_rotation_l	knee_angle_l	knee_angle_l_beta	ankle_angle_l	subtalar_angle_l	mtp_angle_l	L5_S1_Flex_Ext	L5_S1_Lat_Bending	L5_S1_axial_rotation	L4_L5_Flex_Ext	L4_L5_Lat_Bending	L4_L5_axial_rotation	L3_L4_Flex_Ext	L3_L4_Lat_Bending	L3_L4_axial_rotation	L2_L3_Flex_Ext	L2_L3_Lat_Bending	L2_L3_axial_rotation	L1_L2_Flex_Ext	L1_L2_Lat_Bending	L1_L2_axial_rotation	L1_T12_Flex_Ext	L1_T12_Lat_Bending	L1_T12_axial_rotation	Abs_r3	Abs_r2	Abs_r1	Abs_t1	Abs_t2	neck_flexion	neck_bending	neck_rotation	arm_flex_r	arm_add_r	arm_rot_r	elbow_flex_r	pro_sup_r	wrist_flex_r	wrist_dev_r	arm_flex_l	arm_add_l	arm_rot_l	elbow_flex_l	pro_sup_l	wrist_flex_l	wrist_dev_l
      5.27659574	     10.45743655	     -0.61048326	     86.68541600	      0.22734558	      0.91109687	      0.55203011	     -8.05122888	      5.54223844	     14.34451060	      1.14340024	      0.01995610	     25.29591800	     -7.30767743	      0.00000000	     -8.16270874	     -7.84342688	      7.74502277	      0.51532559	      0.00899413	     30.73894852	     -9.28591316	      0.00000000	     -0.36939073	      0.75075464	      1.29505430	     -0.68599552	      0.99850367	      1.37599519	     -0.60687203	      1.82538482	      1.37599519	     -0.42217666	      1.82538482	      1.13317251	     -0.34301623	      1.53093886	      1.05223162	     -0.21106986	      1.16291893	      0.97129072	     -2.63852102	      8.49268661	      7.20270350	      0.00000000	      0.00000000	     27.63599109	     -3.99597833	     -2.69159042	      6.53339045	    -11.80965359	    145.63603213	      4.88869756	      5.93556622	     -0.26475967	     -5.57625788	     12.23048280	     -7.04783386	    137.56289115	     11.51570691	      5.24327305	     -6.38323545	     -0.66144601
      5.29787234	     10.59665918	     -0.65711959	     87.05561056	      0.22682244	      0.91087811	      0.55130875	     -8.21079541	      5.72556902	     15.91637277	      0.83322052	      0.01454244	     24.54409102	    -10.06451367	      0.00000000	     -8.21851503	     -7.99225846	     10.40354783	      0.36792364	      0.00642148	     29.47127390	    -13.23353629	      0.00000000	     -0.35294209	      0.76196588	      1.17350155	     -0.65544875	      1.01341462	      1.24684540	     -0.57984855	      1.85264384	      1.24684540	     -0.40337751	      1.85264384	      1.02681385	     -0.32774202	      1.55380082	      0.95347001	     -0.20167111	      1.18028515	      0.88012616	     -2.52103002	      8.61951041	      6.52666356	      0.00000000	      0.00000000	     27.85895365	     -3.68485417	     -2.55995910	      6.68561750	    -11.55484522	    154.93959338	      3.42350713	      3.37073667	     -0.86401101	     -5.25595917	     11.91458439	     -6.93349717	    138.20914749	     11.61011637	      3.80661004	     -6.65219415	     -0.87800377
      5.31914894	     10.72327907	     -0.62168258	     87.34007703	      0.22665900	      0.91082087	      0.55036569	     -8.37426806	      5.89799141	     15.77298059	      0.77796720	      0.01357809	     24.28855115	    -10.38155718	      0.00000000	     -8.35261096	     -8.13628503	     10.34265525	      0.38215572	      0.00666988	     28.95334330	    -13.51521784	      0.00000000	     -0.34170584	      0.77140515	      1.09156238	     -0.63458192	      1.02596885	      1.15978503	     -0.56138853	      1.87559448	      1.15978503	     -0.39053561	      1.87559448	      0.95511708	     -0.31730805	      1.57304938	      0.88689444	     -0.19525072	      1.19490657	      0.81867179	     -2.44077068	      8.72628931	      6.07094250	      0.00000000	      0.00000000	     27.84358760	     -3.59513634	     -2.54961197	      6.74011685	    -11.57319257	    156.68108794	      2.94712139	      4.76310483	     -1.98210827	     -4.27331078	     11.74543834	     -6.93839035	    138.59356382	     11.86635576	      4.00449023	     -7.03147801	     -1.11492568
      5.34042553	     10.79183598	     -0.65263863	     87.75665528	      0.22623411	      0.91066835	      0.54940531	     -8.45276642	      6.02616438	     15.72772965	      0.74612099	      0.01302227	     23.86290246	    -11.06452455	      0.00000000	     -8.38691877	     -8.23017316	     10.59765635	      0.40222134	      0.00702009	     28.30087328	    -14.03356329	      0.00000000	     -0.32223493	      0.77857132	      0.94827064	     -0.59842249	      1.03549986	      1.00753755	     -0.52939976	      1.89301832	      1.00753755	     -0.36828230	      1.89301832	      0.82973681	     -0.29922735	      1.58766264	      0.77046989	     -0.18412504	      1.20600698	      0.71120298	     -2.30169187	      8.80735453	      5.27399681	      0.00000000	      0.00000000	     27.84419293	     -3.39541934	     -2.21333874	      6.95770888	    -11.68414389	    161.55392197	      2.38818846	      7.14385921	     -3.52747711	     -3.91899992	     11.55932014	     -6.89362157	    139.91754342	     11.94220567	      4.32149025	     -7.47111404	     -1.25674570
      5.36170213	     10.87289786	     -0.70441652	     87.97479999	      0.22595172	      0.91062532	      0.54862108	     -8.49324839	      6.14228275	     16.11901171	      0.73441802	      0.01281801	     23.26196297	    -12.12125772	      0.00000000	     -8.43166201	     -8.30909583	     10.82419035	      0.40901600	      0.00713868	     27.65468226	    -14.74744695	      0.00000000	     -0.30395195	      0.79026455	      0.84441279	     -0.56446917	      1.05105186	      0.89718859	     -0.49936266	      1.92144923	      0.89718859	     -0.34738668	      1.92144923	      0.73886120	     -0.28224978	      1.61150748	      0.68608540	     -0.17367814	      1.22411979	      0.63330960	     -2.17109839	      8.93963068	      4.69637064	      0.00000000	      0.00000000	     27.83520578	     -3.22255402	     -1.82611651	      7.16113146	    -11.86554270	    166.14612985	      1.87021648	      8.03788870	     -4.78441480	     -2.95796217	     11.43689088	     -6.77372243	    142.07049233	     11.94129009	      3.97450188	     -7.64479019	     -1.36217409
      5.38297872	     10.83430639	     -0.80932281	     88.06342237	      0.22587889	      0.91066522	      0.54824185	     -8.40993750	      6.12996179	     15.98469978	      0.80105256	      0.01398100	     22.87047642	    -12.43881274	      0.00000000	     -8.37613515	     -8.25392937	     10.55746720	      0.42247141	      0.00737352	     27.38518847	    -14.86730922	      0.00000000	     -0.28400755	      0.78582246	      0.79534063	     -0.52743043	      1.04514387	      0.84504942	     -0.46659601	      1.91064873	      0.84504942	     -0.32459223	      1.91064873	      0.69592305	     -0.26372941	      1.60244916	      0.64621426	     -0.16228192	      1.21723899	      0.59650547	     -2.02863756	      8.88938085	      4.42344597	      0.00000000	      0.00000000	     27.84028243	     -3.19862428	     -1.71711766	      7.37151286	    -12.08238129	    167.32153592	      1.66562785	      9.21030833	     -5.93871930	     -2.09636073	     11.39095048	     -6.79854967	    142.98563595	     12.05710516	      4.34026270	     -7.95753434	     -1.31335145
      5.40425532	     10.77859910	     -0.84766727	     88.03950825	      0.22578938	      0.91086902	      0.54824822	     -8.38371732	      6.06262436	     15.86983476	      0.85558634	      0.01493280	     22.66913227	    -12.48300971	      0.00000000	     -8.34756233	     -8.17522744	     10.42289425	      0.40916848	      0.00714134	     27.47422382	    -14.96895333	      0.00000000	     -0.27898387	      0.78068417	      0.78567986	     -0.51810095	      1.03830995	      0.83478485	     -0.45834260	      1.89815550	      0.83478485	     -0.31885067	      1.89815550	      0.68746987	     -0.25906442	      1.59197117	      0.63836488	     -0.15941138	      1.20927979	      0.58925989	     -1.99275391	      8.83125551	      4.36971565	      0.00000000	      0.00000000	     27.80839965	     -3.18113643	     -1.73425898	      7.68651029	    -12.44582553	    167.29783537	      1.46864957	      9.22672856	     -6.07261001	     -2.01327926	     11.39268817	     -6.88150832	    143.03286960	     12.11400414	      4.35529731	     -7.92399191	     -1.29636183
      5.42553191	     10.62958281	     -0.90019598	     88.05661416	      0.22586771	      0.91122598	      0.54878783	     -8.26118352	      5.95178908	     15.55317781	      1.00419413	      0.01752649	     22.38338450	    -12.70951553	      0.00000000	     -8.17356559	     -8.00686268	     10.22481116	      0.43436224	      0.00758105	     27.67562111	    -15.06950497	      0.00000000	     -0.28102275	      0.76396701	      0.82114292	     -0.52188735	      1.01607612	      0.87246435	     -0.46169228	      1.85750939	      0.87246435	     -0.32118090	      1.85750939	      0.71850005	     -0.26095773	      1.55788153	      0.66717862	     -0.16057640	      1.18338490	      0.61585719	     -2.00731742	      8.64214760	      4.56695056	      0.00000000	      0.00000000	     27.84484836	     -3.18791730	     -1.61923013	      7.96718414	    -12.72576705	    167.12060103	      1.25997500	      9.25552256	     -6.71950890	     -1.76049011	     11.68336324	     -7.02701340	    143.09466489	     12.21292907	      4.34246347	     -7.69810502	     -1.19470248
      5.44680851	     10.54713251	     -0.94863523	     88.05470340	      0.22591082	      0.91144424	      0.54948603	     -8.20181867	      5.87403687	     15.51093811	      0.99508289	      0.01736747	     22.43808408	    -12.77492406	      0.00000000	     -7.99742258	     -7.92578364	     10.23816793	      0.39926911	      0.00696856	     28.04687487	    -15.10926918	      0.00000000	     -0.28743328	      0.75514165	      0.84531487	     -0.53379235	      1.00433839	      0.89814705	     -0.47222414	      1.83605140	      0.89814705	     -0.32850750	      1.83605140	      0.73965051	     -0.26691055	      1.53988484	      0.68681833	     -0.16423938	      1.16971441	      0.63398615	     -2.05310721	      8.54231332	      4.70138771	      0.00000000	      0.00000000	     27.77764526	     -3.16557338	     -1.59026308	      8.34384441	    -12.96512185	    166.95717103	      1.07180963	      9.19657336	     -7.00387981	     -1.72321788	     11.91622726	     -7.11524703	    143.05922205	     12.12754996	      4.29805597	     -7.61404535	     -1.15526449
      5.46808511	     10.06386575	     -1.04188532	     87.76473347	      0.22652197	      0.91144801	      0.55009589	     -8.03295126	      5.35964207	     15.65509532	      1.10415498	      0.01927114	     22.61777929	    -12.89457068	      0.00000000	     -7.82338930	     -7.40700728	      9.94489373	      0.40615543	      0.00708875	     28.46704094	    -14.72943253	      0.00000000	     -0.28846715	      0.69732569	      0.97945754	     -0.53571235	      0.92744317	      1.04067364	     -0.47392269	      1.69547768	      1.04067364	     -0.32968911	      1.69547768	      0.85702535	     -0.26787060	      1.42198655	      0.79580925	     -0.16483013	      1.08015749	      0.73459316	     -2.06049203	      7.88828767	      5.44744902	      0.00000000	      0.00000000	     27.84179097	     -2.91680773	     -1.41759148	      8.26891959	    -13.00196882	    164.22950825	      1.24230719	      8.07660708	     -8.85434358	     -2.06748145	     12.32653624	     -7.35802642	    142.60102581	     12.09491501	      3.92004328	     -6.53091131	     -0.69393072
